<svg xmlns="http://www.w3.org/2000/svg" version="1.1" xmlns:xlink="http://www.w3.org/1999/xlink" xmlns:svgjs="http://svgjs.com/svgjs" width="1280" height="687" preserveAspectRatio="none" viewBox="0 0 1280 687"><g mask="url(&quot;#SvgjsMask7152&quot;)" fill="none"><rect width="1280" height="687" x="0" y="0" fill="url(#SvgjsLinearGradient7153)"></rect><path d="M65 687L752 0L1235 0L548 687z" fill="url(#SvgjsLinearGradient7154)"></path><path d="M470.40000000000003 687L1157.4 0L1613.4 0L926.4000000000001 687z" fill="url(#SvgjsLinearGradient7154)"></path><path d="M1259 687L572 0L17 0L704 687z" fill="url(#SvgjsLinearGradient7155)"></path><path d="M796.5999999999999 687L109.59999999999991 0L-479.9000000000001 0L207.0999999999999 687z" fill="url(#SvgjsLinearGradient7155)"></path><path d="M673.1658679074243 687L1280 80.16586790742429L1280 687z" fill="url(#SvgjsLinearGradient7154)"></path><path d="M0 687L606.8341320925757 687L 0 80.16586790742429z" fill="url(#SvgjsLinearGradient7155)"></path></g><defs><mask id="SvgjsMask7152"><rect width="1280" height="687" fill="#ffffff"></rect></mask><linearGradient x1="50%" y1="100%" x2="50%" y2="0%" gradientUnits="userSpaceOnUse" id="SvgjsLinearGradient7153"><stop stop-color="#0e2a47" offset="0"></stop><stop stop-color="rgba(184, 182, 8, 1)" offset="1"></stop></linearGradient><linearGradient x1="0%" y1="100%" x2="100%" y2="0%" id="SvgjsLinearGradient7154"><stop stop-color="rgba(15, 70, 185, 0.2)" offset="0"></stop><stop stop-opacity="0" stop-color="rgba(15, 70, 185, 0.2)" offset="0.66"></stop></linearGradient><linearGradient x1="100%" y1="100%" x2="0%" y2="0%" id="SvgjsLinearGradient7155"><stop stop-color="rgba(15, 70, 185, 0.2)" offset="0"></stop><stop stop-opacity="0" stop-color="rgba(15, 70, 185, 0.2)" offset="0.66"></stop></linearGradient></defs></svg>